<svg id="Group_1" data-name="Group 1" xmlns="http://www.w3.org/2000/svg" width="116.843" height="61.496" viewBox="0 0 116.843 61.496">
  <path id="Path_1" data-name="Path 1" d="M154.97,112.757l-2.6,1.693A27.785,27.785,0,0,1,148.1,148.07a27.659,27.659,0,0,1-39.116-39.115,27.787,27.787,0,0,1,33.619-4.266l1.694-2.6a30.905,30.905,0,0,0-37.508,4.674A30.763,30.763,0,1,0,150.3,150.265a30.9,30.9,0,0,0,4.674-37.508" transform="translate(-97.779 -97.78)" fill="#2c3343"/>
  <path id="Path_2" data-name="Path 2" d="M135.275,183.492c0,2.972-1.063,5.51-5.033,5.51-3.926,0-5.054-2.538-5.054-5.51,0-4.078,2.126-5.531,5.054-5.531,2.95,0,5.033,1.453,5.033,5.531m-2.343,0c0-1.952-.5-3.188-2.69-3.188-2.169,0-2.711,1.236-2.711,3.188,0,2.43.933,3.167,2.711,3.167,1.8,0,2.69-.737,2.69-3.167m4.343-4.468a11.744,11.744,0,0,1,4.187-1.063c2.95,0,5.12,1.453,5.12,5.531,0,2.972-1.171,5.51-5.12,5.51a8.473,8.473,0,0,1-1.865-.217v4.056l-2.321.391Zm7.007,4.468c0-2.1-.738-3.232-2.82-3.232a4.642,4.642,0,0,0-1.844.347v5.922a9.023,9.023,0,0,0,1.844.174c2.061,0,2.82-1.214,2.82-3.21m6.489.933a2.559,2.559,0,0,0,2.841,2.321,13.372,13.372,0,0,0,3.536-.65v2.212a10.643,10.643,0,0,1-3.753.673c-3.926,0-5.141-2.6-5.141-5.488,0-3.883,2.126-5.531,5.054-5.531s5.032,1.605,5.032,5.531a7.893,7.893,0,0,1-.043.933Zm.043-2.126h5.1a2.278,2.278,0,0,0-2.6-2,2.161,2.161,0,0,0-2.495,2m11.812,6.616h-2.343v-9.891a11.366,11.366,0,0,1,4.187-1.063c2.972,0,4.968,1.453,4.968,5.531v5.423h-2.343v-5.423c0-1.974-.564-3.254-2.625-3.254a6.3,6.3,0,0,0-1.844.3Z" transform="translate(-116.564 -152.734)" fill="#33a02c"/>
  <path id="Path_3" data-name="Path 3" d="M251.563,124.18a27.855,27.855,0,0,0-8.148-8.148l1.693-2.6a30.964,30.964,0,0,1,9.059,9.058Z" transform="translate(-197.594 -108.505)" fill="#33a02c"/>
  <path id="Path_4" data-name="Path 4" d="M310.478,177.984a16.7,16.7,0,0,1,3.319.412v2.234a20.19,20.19,0,0,0-3.189-.369c-1.02,0-1.866.239-1.866,1.063,0,1.952,5.965-.369,5.965,4.381,0,2.429-1.974,3.319-4.1,3.319a15.457,15.457,0,0,1-4.078-.607V186.2a19.336,19.336,0,0,0,3.644.542c1.15,0,2.17-.043,2.17-1.041,0-2.3-5.922.39-5.922-4.36,0-2.689,1.931-3.362,4.056-3.362m8.38,6.442a2.559,2.559,0,0,0,2.842,2.321,13.358,13.358,0,0,0,3.535-.65v2.212a10.646,10.646,0,0,1-3.753.672c-3.926,0-5.141-2.6-5.141-5.487,0-3.883,2.126-5.532,5.054-5.532s5.033,1.6,5.033,5.532a7.876,7.876,0,0,1-.043.932Zm.043-2.125H324a2.278,2.278,0,0,0-2.6-2,2.161,2.161,0,0,0-2.494,2m11.812,6.616h-2.343V178.96a10.212,10.212,0,0,1,4.186-.911,13.179,13.179,0,0,1,1.714.087v2.191a12.389,12.389,0,0,0-1.453-.131,5.313,5.313,0,0,0-2.1.369Zm4.909-10.846h2.711l2.842,7.136,2.863-7.136h2.711L342.3,188.916h-2.256Zm14.427,6.355a2.56,2.56,0,0,0,2.842,2.321,13.362,13.362,0,0,0,3.536-.65v2.212a10.649,10.649,0,0,1-3.753.672c-3.926,0-5.141-2.6-5.141-5.487,0-3.883,2.126-5.532,5.054-5.532s5.032,1.6,5.032,5.532a7.822,7.822,0,0,1-.044.932Zm.044-2.125h5.1a2.277,2.277,0,0,0-2.6-2,2.161,2.161,0,0,0-2.495,2" transform="translate(-240.778 -152.735)" fill="#2c3343"/>
</svg>
